# xmcd
#
# Track frame offsets:
#  150
#  10724
#  21635
#  33224
#  41852
#  52674
#  64145
#  74656
#  86174
#  99627
#  109351
#  120972
#  134622
#  143247
#  155246
#  174749
#
# Disc length: 2470 seconds
#
# Revision: 0
# Processed by: cddbd v1.5.2PL0 Copyright (c) Steve Scherf et al.
# Submitted via: AltoMP3_Maker 3.0
#
DISCID=ea09a410
DTITLE=Various Artist - Country Classics Vol16
DYEAR=1900
DGENRE=
TTITLE0=Alice Blue Gown
TTITLE1=Cry! Cry! Cry!
TTITLE2=In Care Of The Blues
TTITLE3=Jolie Blonde
TTITLE4=You'd Be The First To Know
TTITLE5=Listen To A Country Song
TTITLE6=Where Does A Broken Heart Go
TTITLE7=Cheatin' Is
TTITLE8=Wondering
TTITLE9=Buffalo Dream
TTITLE10=A Heart Full OF Love
TTITLE11=Mother, Queen Of My Heart
TTITLE12=Lorelei
TTITLE13=Cigarettes Whusly& Wild Wild Wild Women
TTITLE14=Lay It Down
TTITLE15=Misty Blue
EXTD=
EXTT0=
EXTT1=
EXTT2=
EXTT3=
EXTT4=
EXTT5=
EXTT6=
EXTT7=
EXTT8=
EXTT9=
EXTT10=
EXTT11=
EXTT12=
EXTT13=
EXTT14=
EXTT15=
PLAYORDER=
